# MagicaVoxel @ Ephtracy

# group
o 

# material
mtllib SW.mtl
usemtl palette

# normals
vn -1 0 0
vn 1 0 0
vn 0 0 1
vn 0 0 -1
vn 0 -1 0
vn 0 1 0

# texcoords
vt 0.373047 0.5
vt 0.982422 0.5

# verts
v -0.8 0 0.4
v -0.8 0 0.2
v -0.8 0 -0.2
v -0.8 0 -0.4
v -0.8 0.1 0.4
v -0.8 0.1 0.2
v -0.8 0.1 -0.2
v -0.8 0.1 -0.4
v -0.7 0 0.2
v -0.7 0 -0.2
v -0.7 0.1 0.2
v -0.7 0.1 -0.2
v -0.6 0 0.5
v -0.6 0 0.4
v -0.6 0.1 0.5
v -0.6 0.1 0.4
v -0.5 0 0.6
v -0.5 0 0.5
v -0.5 0.1 0.6
v -0.5 0.1 0.5
v -0.4 0 0.8
v -0.4 0 0.6
v -0.4 0 0.2
v -0.4 0 0
v -0.4 0.1 0.8
v -0.4 0.1 0.6
v -0.4 0.1 0.2
v -0.4 0.1 0
v -0.3 0 0
v -0.3 0 -0.1
v -0.3 0.1 0
v -0.3 0.1 -0.1
v -0.2 0 0.3
v -0.2 0 0.2
v -0.2 0.1 0.3
v -0.2 0.1 0.2
v -0.1 0 0.2
v -0.1 0 0.1
v -0.1 0.1 0.2
v -0.1 0.1 0.1
v 0.1 0 0.5
v 0.1 0 0.3
v 0.1 0.1 0.5
v 0.1 0.1 0.3
v 0.2 0 0.8
v 0.2 0 0.7
v 0.2 0.1 0.8
v 0.2 0.1 0.7
v -0.5 0 0.2
v -0.5 0 -0.1
v -0.5 0.1 0.2
v -0.5 0.1 -0.1
v -0.4 0 -0.3
v -0.4 0 -0.4
v -0.4 0.1 -0.3
v -0.4 0.1 -0.4
v -0.3 0 0.3
v -0.3 0 0.2
v -0.3 0.1 0.3
v -0.3 0.1 0.2
v -0.2 0 0.8
v -0.2 0 0.7
v -0.2 0 0.5
v -0.2 0 0.4
v -0.2 0 0.2
v -0.2 0 0.1
v -0.2 0 -0.2
v -0.2 0 -0.3
v -0.2 0.1 0.8
v -0.2 0.1 0.7
v -0.2 0.1 0.5
v -0.2 0.1 0.4
v -0.2 0.1 0.2
v -0.2 0.1 0.1
v -0.2 0.1 -0.2
v -0.2 0.1 -0.3
v 0 0 0.4
v 0 0 0.3
v 0 0 -0.1
v 0 0 -0.2
v 0 0.1 0.4
v 0 0.1 0.3
v 0 0.1 -0.1
v 0 0.1 -0.2
v 0.1 0 0
v 0.1 0 -0.1
v 0.1 0.1 0
v 0.1 0.1 -0.1
v 0.2 0 0.2
v 0.2 0 0
v 0.2 0.1 0.2
v 0.2 0.1 0
v 0.3 0 0.4
v 0.3 0 0.2
v 0.3 0.1 0.4
v 0.3 0.1 0.2
v 0.4 0 0.8
v 0.4 0 0.4
v 0.4 0.1 0.8
v 0.4 0.1 0.4
v -0.4 0 0.8
v -0.4 0.1 0.8
v -0.2 0 0.8
v -0.2 0.1 0.8
v 0.2 0 0.8
v 0.2 0.1 0.8
v 0.4 0 0.8
v 0.4 0.1 0.8
v -0.2 0 0.7
v -0.2 0.1 0.7
v 0.2 0 0.7
v 0.2 0.1 0.7
v -0.5 0 0.6
v -0.5 0.1 0.6
v -0.4 0 0.6
v -0.4 0.1 0.6
v -0.6 0 0.5
v -0.6 0.1 0.5
v -0.5 0 0.5
v -0.5 0.1 0.5
v -0.8 0 0.4
v -0.8 0.1 0.4
v -0.6 0 0.4
v -0.6 0.1 0.4
v -0.2 0 0.4
v -0.2 0.1 0.4
v 0 0 0.4
v 0 0.1 0.4
v 0 0 0.3
v 0 0.1 0.3
v 0.1 0 0.3
v 0.1 0.1 0.3
v -0.3 0 0.2
v -0.3 0.1 0.2
v -0.2 0 0.2
v -0.2 0.1 0.2
v -0.2 0 0.1
v -0.2 0.1 0.1
v -0.1 0 0.1
v -0.1 0.1 0.1
v -0.5 0 -0.1
v -0.5 0.1 -0.1
v -0.3 0 -0.1
v -0.3 0.1 -0.1
v -0.8 0 -0.2
v -0.8 0.1 -0.2
v -0.7 0 -0.2
v -0.7 0.1 -0.2
v -0.2 0 0.5
v -0.2 0.1 0.5
v 0.1 0 0.5
v 0.1 0.1 0.5
v 0.3 0 0.4
v 0.3 0.1 0.4
v 0.4 0 0.4
v 0.4 0.1 0.4
v -0.3 0 0.3
v -0.3 0.1 0.3
v -0.2 0 0.3
v -0.2 0.1 0.3
v -0.8 0 0.2
v -0.8 0.1 0.2
v -0.7 0 0.2
v -0.7 0.1 0.2
v -0.5 0 0.2
v -0.5 0.1 0.2
v -0.4 0 0.2
v -0.4 0.1 0.2
v -0.2 0 0.2
v -0.2 0.1 0.2
v -0.1 0 0.2
v -0.1 0.1 0.2
v 0.2 0 0.2
v 0.2 0.1 0.2
v 0.3 0 0.2
v 0.3 0.1 0.2
v -0.4 0 0
v -0.4 0.1 0
v -0.3 0 0
v -0.3 0.1 0
v 0.1 0 0
v 0.1 0.1 0
v 0.2 0 0
v 0.2 0.1 0
v 0 0 -0.1
v 0 0.1 -0.1
v 0.1 0 -0.1
v 0.1 0.1 -0.1
v -0.2 0 -0.2
v -0.2 0.1 -0.2
v 0 0 -0.2
v 0 0.1 -0.2
v -0.4 0 -0.3
v -0.4 0.1 -0.3
v -0.2 0 -0.3
v -0.2 0.1 -0.3
v -0.8 0 -0.4
v -0.8 0.1 -0.4
v -0.4 0 -0.4
v -0.4 0.1 -0.4
v -0.4 0 0.8
v -0.2 0 0.8
v 0.2 0 0.8
v 0.4 0 0.8
v -0.2 0 0.7
v 0.2 0 0.7
v -0.5 0 0.6
v -0.4 0 0.6
v -0.6 0 0.5
v -0.5 0 0.5
v -0.3 0 0.5
v -0.2 0 0.5
v 0.1 0 0.5
v 0.2 0 0.5
v -0.8 0 0.4
v -0.6 0 0.4
v -0.2 0 0.4
v 0 0 0.4
v 0.3 0 0.4
v 0.4 0 0.4
v -0.5 0 0.3
v -0.3 0 0.3
v -0.2 0 0.3
v 0 0 0.3
v 0.1 0 0.3
v -0.8 0 0.2
v -0.7 0 0.2
v -0.5 0 0.2
v -0.4 0 0.2
v -0.3 0 0.2
v -0.2 0 0.2
v -0.1 0 0.2
v 0.2 0 0.2
v 0.3 0 0.2
v -0.2 0 0.1
v -0.1 0 0.1
v 0 0 0.1
v -0.4 0 0
v -0.3 0 0
v -0.1 0 0
v 0.1 0 0
v 0.2 0 0
v -0.5 0 -0.1
v -0.3 0 -0.1
v 0 0 -0.1
v 0.1 0 -0.1
v -0.8 0 -0.2
v -0.7 0 -0.2
v -0.5 0 -0.2
v -0.2 0 -0.2
v 0 0 -0.2
v -0.4 0 -0.3
v -0.2 0 -0.3
v -0.8 0 -0.4
v -0.4 0 -0.4
v -0.4 0.1 0.8
v -0.2 0.1 0.8
v 0.2 0.1 0.8
v 0.4 0.1 0.8
v -0.2 0.1 0.7
v 0.2 0.1 0.7
v -0.5 0.1 0.6
v -0.4 0.1 0.6
v -0.6 0.1 0.5
v -0.5 0.1 0.5
v -0.3 0.1 0.5
v -0.2 0.1 0.5
v 0.1 0.1 0.5
v 0.2 0.1 0.5
v -0.8 0.1 0.4
v -0.6 0.1 0.4
v -0.2 0.1 0.4
v 0 0.1 0.4
v 0.3 0.1 0.4
v 0.4 0.1 0.4
v -0.5 0.1 0.3
v -0.3 0.1 0.3
v -0.2 0.1 0.3
v 0 0.1 0.3
v 0.1 0.1 0.3
v -0.8 0.1 0.2
v -0.7 0.1 0.2
v -0.5 0.1 0.2
v -0.4 0.1 0.2
v -0.3 0.1 0.2
v -0.2 0.1 0.2
v -0.1 0.1 0.2
v 0.2 0.1 0.2
v 0.3 0.1 0.2
v -0.2 0.1 0.1
v -0.1 0.1 0.1
v 0 0.1 0.1
v -0.4 0.1 0
v -0.3 0.1 0
v -0.1 0.1 0
v 0.1 0.1 0
v 0.2 0.1 0
v -0.5 0.1 -0.1
v -0.3 0.1 -0.1
v 0 0.1 -0.1
v 0.1 0.1 -0.1
v -0.8 0.1 -0.2
v -0.7 0.1 -0.2
v -0.5 0.1 -0.2
v -0.2 0.1 -0.2
v 0 0.1 -0.2
v -0.4 0.1 -0.3
v -0.2 0.1 -0.3
v -0.8 0.1 -0.4
v -0.4 0.1 -0.4

# faces
f 5/1/1 2/1/1 1/1/1
f 6/1/1 2/1/1 5/1/1
f 7/1/1 4/1/1 3/1/1
f 8/1/1 4/1/1 7/1/1
f 11/2/1 10/2/1 9/2/1
f 12/2/1 10/2/1 11/2/1
f 15/1/1 14/1/1 13/1/1
f 16/1/1 14/1/1 15/1/1
f 19/1/1 18/1/1 17/1/1
f 20/1/1 18/1/1 19/1/1
f 25/1/1 22/1/1 21/1/1
f 26/1/1 22/1/1 25/1/1
f 27/2/1 24/2/1 23/2/1
f 28/2/1 24/2/1 27/2/1
f 31/1/1 30/1/1 29/1/1
f 32/1/1 30/1/1 31/1/1
f 35/2/1 34/2/1 33/2/1
f 36/2/1 34/2/1 35/2/1
f 39/2/1 38/2/1 37/2/1
f 40/2/1 38/2/1 39/2/1
f 43/1/1 42/1/1 41/1/1
f 44/1/1 42/1/1 43/1/1
f 47/1/1 46/1/1 45/1/1
f 48/1/1 46/1/1 47/1/1
f 49/2/2 50/2/2 51/2/2
f 51/2/2 50/2/2 52/2/2
f 53/1/2 54/1/2 55/1/2
f 55/1/2 54/1/2 56/1/2
f 57/2/2 58/2/2 59/2/2
f 59/2/2 58/2/2 60/2/2
f 61/1/2 62/1/2 69/1/2
f 69/1/2 62/1/2 70/1/2
f 63/2/2 64/2/2 71/2/2
f 71/2/2 64/2/2 72/2/2
f 65/2/2 66/2/2 73/2/2
f 73/2/2 66/2/2 74/2/2
f 67/1/2 68/1/2 75/1/2
f 75/1/2 68/1/2 76/1/2
f 77/2/2 78/2/2 81/2/2
f 81/2/2 78/2/2 82/2/2
f 79/1/2 80/1/2 83/1/2
f 83/1/2 80/1/2 84/1/2
f 85/1/2 86/1/2 87/1/2
f 87/1/2 86/1/2 88/1/2
f 89/1/2 90/1/2 91/1/2
f 91/1/2 90/1/2 92/1/2
f 93/1/2 94/1/2 95/1/2
f 95/1/2 94/1/2 96/1/2
f 97/1/2 98/1/2 99/1/2
f 99/1/2 98/1/2 100/1/2
f 103/1/3 102/1/3 101/1/3
f 104/1/3 102/1/3 103/1/3
f 107/1/3 106/1/3 105/1/3
f 108/1/3 106/1/3 107/1/3
f 111/2/3 110/2/3 109/2/3
f 112/2/3 110/2/3 111/2/3
f 115/1/3 114/1/3 113/1/3
f 116/1/3 114/1/3 115/1/3
f 119/1/3 118/1/3 117/1/3
f 120/1/3 118/1/3 119/1/3
f 123/1/3 122/1/3 121/1/3
f 124/1/3 122/1/3 123/1/3
f 127/2/3 126/2/3 125/2/3
f 128/2/3 126/2/3 127/2/3
f 131/1/3 130/1/3 129/1/3
f 132/1/3 130/1/3 131/1/3
f 135/2/3 134/2/3 133/2/3
f 136/2/3 134/2/3 135/2/3
f 139/2/3 138/2/3 137/2/3
f 140/2/3 138/2/3 139/2/3
f 143/1/3 142/1/3 141/1/3
f 144/1/3 142/1/3 143/1/3
f 147/1/3 146/1/3 145/1/3
f 148/1/3 146/1/3 147/1/3
f 149/2/4 150/2/4 151/2/4
f 151/2/4 150/2/4 152/2/4
f 153/1/4 154/1/4 155/1/4
f 155/1/4 154/1/4 156/1/4
f 157/2/4 158/2/4 159/2/4
f 159/2/4 158/2/4 160/2/4
f 161/1/4 162/1/4 163/1/4
f 163/1/4 162/1/4 164/1/4
f 165/2/4 166/2/4 167/2/4
f 167/2/4 166/2/4 168/2/4
f 169/2/4 170/2/4 171/2/4
f 171/2/4 170/2/4 172/2/4
f 173/1/4 174/1/4 175/1/4
f 175/1/4 174/1/4 176/1/4
f 177/2/4 178/2/4 179/2/4
f 179/2/4 178/2/4 180/2/4
f 181/1/4 182/1/4 183/1/4
f 183/1/4 182/1/4 184/1/4
f 185/1/4 186/1/4 187/1/4
f 187/1/4 186/1/4 188/1/4
f 189/1/4 190/1/4 191/1/4
f 191/1/4 190/1/4 192/1/4
f 193/1/4 194/1/4 195/1/4
f 195/1/4 194/1/4 196/1/4
f 197/1/4 198/1/4 199/1/4
f 199/1/4 198/1/4 200/1/4
f 205/1/5 202/1/5 201/1/5
f 206/1/5 204/1/5 203/1/5
f 208/1/5 205/1/5 201/1/5
f 210/1/5 208/1/5 207/1/5
f 211/1/5 205/1/5 208/1/5
f 211/1/5 208/1/5 210/1/5
f 212/2/5 206/2/5 205/2/5
f 212/1/5 205/1/5 211/1/5
f 213/2/5 206/2/5 212/2/5
f 214/1/5 204/1/5 206/1/5
f 214/2/5 206/2/5 213/2/5
f 216/1/5 211/1/5 210/1/5
f 216/1/5 210/1/5 209/1/5
f 217/2/5 212/2/5 211/2/5
f 219/1/5 214/1/5 213/1/5
f 219/1/5 204/1/5 214/1/5
f 220/1/5 204/1/5 219/1/5
f 221/1/5 216/1/5 215/1/5
f 221/1/5 211/1/5 216/1/5
f 222/2/5 218/2/5 217/2/5
f 222/1/5 211/1/5 221/1/5
f 222/2/5 217/2/5 211/2/5
f 223/2/5 218/2/5 222/2/5
f 224/2/5 218/2/5 223/2/5
f 225/1/5 219/1/5 213/1/5
f 226/1/5 221/1/5 215/1/5
f 227/1/5 221/1/5 226/1/5
f 228/2/5 222/2/5 221/2/5
f 228/1/5 221/1/5 227/1/5
f 229/2/5 222/2/5 228/2/5
f 230/2/5 222/2/5 229/2/5
f 231/2/5 224/2/5 223/2/5
f 232/2/5 224/2/5 231/2/5
f 233/1/5 225/1/5 224/1/5
f 233/1/5 219/1/5 225/1/5
f 234/1/5 219/1/5 233/1/5
f 235/2/5 230/2/5 229/2/5
f 235/2/5 231/2/5 230/2/5
f 236/2/5 224/2/5 232/2/5
f 237/1/5 233/1/5 224/1/5
f 237/2/5 224/2/5 236/2/5
f 238/2/5 235/2/5 229/2/5
f 238/2/5 236/2/5 235/2/5
f 239/2/5 236/2/5 238/2/5
f 240/1/5 237/1/5 236/1/5
f 240/2/5 236/2/5 239/2/5
f 241/1/5 233/1/5 237/1/5
f 241/1/5 237/1/5 240/1/5
f 242/1/5 233/1/5 241/1/5
f 243/2/5 228/2/5 227/2/5
f 244/1/5 240/1/5 239/1/5
f 244/1/5 241/1/5 240/1/5
f 245/1/5 241/1/5 244/1/5
f 246/1/5 241/1/5 245/1/5
f 248/2/5 243/2/5 227/2/5
f 249/1/5 244/1/5 243/1/5
f 249/1/5 245/1/5 244/1/5
f 249/2/5 243/2/5 248/2/5
f 250/1/5 245/1/5 249/1/5
f 251/1/5 245/1/5 250/1/5
f 252/1/5 248/1/5 247/1/5
f 252/1/5 249/1/5 248/1/5
f 252/1/5 250/1/5 249/1/5
f 253/1/5 250/1/5 252/1/5
f 254/1/5 252/1/5 247/1/5
f 255/1/5 252/1/5 254/1/5
f 256/1/6 257/1/6 260/1/6
f 258/1/6 259/1/6 261/1/6
f 256/1/6 260/1/6 263/1/6
f 262/1/6 263/1/6 265/1/6
f 263/1/6 260/1/6 266/1/6
f 265/1/6 263/1/6 266/1/6
f 260/2/6 261/2/6 267/2/6
f 266/1/6 260/1/6 267/1/6
f 267/2/6 261/2/6 268/2/6
f 261/1/6 259/1/6 269/1/6
f 268/2/6 261/2/6 269/2/6
f 265/1/6 266/1/6 271/1/6
f 264/1/6 265/1/6 271/1/6
f 266/2/6 267/2/6 272/2/6
f 268/1/6 269/1/6 274/1/6
f 269/1/6 259/1/6 274/1/6
f 274/1/6 259/1/6 275/1/6
f 270/1/6 271/1/6 276/1/6
f 271/1/6 266/1/6 276/1/6
f 272/2/6 273/2/6 277/2/6
f 276/1/6 266/1/6 277/1/6
f 266/2/6 272/2/6 277/2/6
f 277/2/6 273/2/6 278/2/6
f 278/2/6 273/2/6 279/2/6
f 268/1/6 274/1/6 280/1/6
f 270/1/6 276/1/6 281/1/6
f 281/1/6 276/1/6 282/1/6
f 276/2/6 277/2/6 283/2/6
f 282/1/6 276/1/6 283/1/6
f 283/2/6 277/2/6 284/2/6
f 284/2/6 277/2/6 285/2/6
f 278/2/6 279/2/6 286/2/6
f 286/2/6 279/2/6 287/2/6
f 279/1/6 280/1/6 288/1/6
f 280/1/6 274/1/6 288/1/6
f 288/1/6 274/1/6 289/1/6
f 284/2/6 285/2/6 290/2/6
f 285/2/6 286/2/6 290/2/6
f 287/2/6 279/2/6 291/2/6
f 279/1/6 288/1/6 292/1/6
f 291/2/6 279/2/6 292/2/6
f 284/2/6 290/2/6 293/2/6
f 290/2/6 291/2/6 293/2/6
f 293/2/6 291/2/6 294/2/6
f 291/1/6 292/1/6 295/1/6
f 294/2/6 291/2/6 295/2/6
f 292/1/6 288/1/6 296/1/6
f 295/1/6 292/1/6 296/1/6
f 296/1/6 288/1/6 297/1/6
f 282/2/6 283/2/6 298/2/6
f 294/1/6 295/1/6 299/1/6
f 295/1/6 296/1/6 299/1/6
f 299/1/6 296/1/6 300/1/6
f 300/1/6 296/1/6 301/1/6
f 282/2/6 298/2/6 303/2/6
f 298/1/6 299/1/6 304/1/6
f 299/1/6 300/1/6 304/1/6
f 303/2/6 298/2/6 304/2/6
f 304/1/6 300/1/6 305/1/6
f 305/1/6 300/1/6 306/1/6
f 302/1/6 303/1/6 307/1/6
f 303/1/6 304/1/6 307/1/6
f 304/1/6 305/1/6 307/1/6
f 307/1/6 305/1/6 308/1/6
f 302/1/6 307/1/6 309/1/6
f 309/1/6 307/1/6 310/1/6
