# MagicaVoxel @ Ephtracy

# group
o 

# material
mtllib Obstacle_2x2_2.mtl
usemtl palette

# normals
vn -1 0 0
vn 1 0 0
vn 0 0 1
vn 0 0 -1
vn 0 -1 0
vn 0 1 0

# texcoords
vt 0.373047 0.5
vt 0.892578 0.5
vt 0.896484 0.5

# verts
v -1.6 0 1.6
v -1.6 0 -1.6
v -1.6 0.1 1.6
v -1.6 0.1 -1.6
v -1 1.9 1.1
v -1 1.9 -0.9
v -1 2.9 1.1
v -1 2.9 -0.9
v -0.2 0.1 0.4
v -0.2 0.1 -0.2
v -0.2 1.9 0.4
v -0.2 1.9 -0.2
v 0.3 0.1 0.4
v 0.3 0.1 -0.2
v 0.3 1.9 0.4
v 0.3 1.9 -0.2
v 1.1 1.9 1.1
v 1.1 1.9 -0.9
v 1.1 2.9 1.1
v 1.1 2.9 -0.9
v 1.6 0 1.6
v 1.6 0 -1.6
v 1.6 0.1 1.6
v 1.6 0.1 -1.6
v -1.6 0 1.6
v -1.6 0.1 1.6
v 1.6 0 1.6
v 1.6 0.1 1.6
v -1 1.9 1.1
v -1 2.9 1.1
v 1.1 1.9 1.1
v 1.1 2.9 1.1
v -0.2 0.1 0.4
v -0.2 1.9 0.4
v 0.3 0.1 0.4
v 0.3 1.9 0.4
v -0.2 0.1 -0.2
v -0.2 1.9 -0.2
v 0.3 0.1 -0.2
v 0.3 1.9 -0.2
v -1 1.9 -0.9
v -1 2.9 -0.9
v 1.1 1.9 -0.9
v 1.1 2.9 -0.9
v -1.6 0 -1.6
v -1.6 0.1 -1.6
v 1.6 0 -1.6
v 1.6 0.1 -1.6
v -1.6 0 1.6
v 1.6 0 1.6
v -1.6 0 -1.6
v 1.6 0 -1.6
v -1 1.9 1.1
v 1.1 1.9 1.1
v -0.2 1.9 0.4
v 0.3 1.9 0.4
v -0.2 1.9 -0.2
v 0.3 1.9 -0.2
v -1 1.9 -0.9
v 1.1 1.9 -0.9
v -1.6 0.1 1.6
v 1.6 0.1 1.6
v -0.2 0.1 0.4
v 0.3 0.1 0.4
v -0.2 0.1 -0.2
v 0.3 0.1 -0.2
v -1.6 0.1 -1.6
v 1.6 0.1 -1.6
v -1 2.9 1.1
v 1.1 2.9 1.1
v -1 2.9 -0.9
v 1.1 2.9 -0.9

# faces
f 3/3/1 2/3/1 1/3/1
f 4/3/1 2/3/1 3/3/1
f 7/2/1 6/2/1 5/2/1
f 8/2/1 6/2/1 7/2/1
f 11/1/1 10/1/1 9/1/1
f 12/1/1 10/1/1 11/1/1
f 13/1/2 14/1/2 15/1/2
f 15/1/2 14/1/2 16/1/2
f 17/2/2 18/2/2 19/2/2
f 19/2/2 18/2/2 20/2/2
f 21/3/2 22/3/2 23/3/2
f 23/3/2 22/3/2 24/3/2
f 27/3/3 26/3/3 25/3/3
f 28/3/3 26/3/3 27/3/3
f 31/2/3 30/2/3 29/2/3
f 32/2/3 30/2/3 31/2/3
f 35/1/3 34/1/3 33/1/3
f 36/1/3 34/1/3 35/1/3
f 37/1/4 38/1/4 39/1/4
f 39/1/4 38/1/4 40/1/4
f 41/2/4 42/2/4 43/2/4
f 43/2/4 42/2/4 44/2/4
f 45/3/4 46/3/4 47/3/4
f 47/3/4 46/3/4 48/3/4
f 51/3/5 50/3/5 49/3/5
f 52/3/5 50/3/5 51/3/5
f 55/2/5 54/2/5 53/2/5
f 56/2/5 54/2/5 55/2/5
f 57/2/5 55/2/5 53/2/5
f 58/2/5 54/2/5 56/2/5
f 59/2/5 57/2/5 53/2/5
f 59/2/5 58/2/5 57/2/5
f 60/2/5 54/2/5 58/2/5
f 60/2/5 58/2/5 59/2/5
f 61/3/6 62/3/6 63/3/6
f 63/3/6 62/3/6 64/3/6
f 61/3/6 63/3/6 65/3/6
f 64/3/6 62/3/6 66/3/6
f 61/3/6 65/3/6 67/3/6
f 65/3/6 66/3/6 67/3/6
f 66/3/6 62/3/6 68/3/6
f 67/3/6 66/3/6 68/3/6
f 69/2/6 70/2/6 71/2/6
f 71/2/6 70/2/6 72/2/6
