# MagicaVoxel @ Ephtracy

# group
o 

# material
mtllib Obstacle_2x2_1.mtl
usemtl palette

# normals
vn -1 0 0
vn 1 0 0
vn 0 0 1
vn 0 0 -1
vn 0 -1 0
vn 0 1 0

# texcoords
vt 0.712891 0.5
vt 0.775391 0.5
vt 0.806641 0.5
vt 0.888672 0.5
vt 0.896484 0.5
vt 0.904297 0.5
vt 0.974609 0.5

# verts
v -1.6 0 1.6
v -1.6 0 -1.6
v -1.6 0.1 1.6
v -1.6 0.1 -1.6
v -0.4 0.1 0
v -0.4 0.1 -0.1
v -0.4 0.2 0
v -0.4 0.2 -0.1
v -0.3 0.1 0.3
v -0.3 0.1 0
v -0.3 0.2 0.3
v -0.3 0.2 0
v 0.4 0.1 1
v 0.4 0.1 0.7
v 0.4 0.2 1
v 0.4 0.2 0.7
v 0.5 0.2 1
v 0.5 0.2 0.8
v 0.5 0.3 1
v 0.5 0.3 0.8
v -0.1 0.1 0.3
v -0.1 0.1 -0.1
v -0.1 0.2 0.3
v -0.1 0.2 -0.1
v 0.7 0.1 1
v 0.7 0.1 0.7
v 0.7 0.2 0.8
v 0.7 0.2 0.7
v 0.7 0.3 1
v 0.7 0.3 0.8
v 1.6 0 1.6
v 1.6 0 -1.6
v 1.6 0.1 1.6
v 1.6 0.1 -1.6
v -1.6 0 1.6
v -1.6 0.1 1.6
v 1.6 0 1.6
v 1.6 0.1 1.6
v 0.4 0.1 1
v 0.4 0.2 1
v 0.5 0.2 1
v 0.5 0.3 1
v 0.7 0.1 1
v 0.7 0.3 1
v -0.3 0.1 0.3
v -0.3 0.2 0.3
v -0.1 0.1 0.3
v -0.1 0.2 0.3
v -0.4 0.1 0
v -0.4 0.2 0
v -0.3 0.1 0
v -0.3 0.2 0
v 0.5 0.2 0.8
v 0.5 0.3 0.8
v 0.7 0.2 0.8
v 0.7 0.3 0.8
v 0.4 0.1 0.7
v 0.4 0.2 0.7
v 0.5 0.1 0.7
v 0.7 0.1 0.7
v 0.7 0.2 0.7
v -0.4 0.1 -0.1
v -0.4 0.2 -0.1
v -0.3 0.1 -0.1
v -0.3 0.2 -0.1
v -0.1 0.1 -0.1
v -0.1 0.2 -0.1
v -1.6 0 -1.6
v -1.6 0.1 -1.6
v 1.6 0 -1.6
v 1.6 0.1 -1.6
v -1.6 0 1.6
v 1.6 0 1.6
v -1.1 0 1.2
v 1 0 1.2
v -0.6 0 0.7
v 0.5 0 0.7
v -0.5 0 0.1
v -0.4 0 0.1
v -0.6 0 0
v -0.5 0 0
v -0.4 0 0
v -0.6 0 -0.1
v -0.5 0 -0.1
v -0.6 0 -0.7
v 0.5 0 -0.7
v -1.1 0 -1.2
v 1 0 -1.2
v -1.6 0 -1.6
v 1.6 0 -1.6
v -1.6 0.1 1.6
v 1.6 0.1 1.6
v -1.1 0.1 1.2
v 1 0.1 1.2
v 0.4 0.1 1
v 0.7 0.1 1
v -0.6 0.1 0.7
v 0.4 0.1 0.7
v 0.5 0.1 0.7
v 0.7 0.1 0.7
v -0.3 0.1 0.3
v -0.1 0.1 0.3
v -0.5 0.1 0.1
v -0.4 0.1 0.1
v -0.6 0.1 0
v -0.5 0.1 0
v -0.4 0.1 0
v -0.3 0.1 0
v -0.6 0.1 -0.1
v -0.5 0.1 -0.1
v -0.4 0.1 -0.1
v -0.3 0.1 -0.1
v -0.1 0.1 -0.1
v -0.6 0.1 -0.7
v 0.5 0.1 -0.7
v -1.1 0.1 -1.2
v 1 0.1 -1.2
v -1.6 0.1 -1.6
v 1.6 0.1 -1.6
v 0.4 0.2 1
v 0.5 0.2 1
v 0.5 0.2 0.8
v 0.7 0.2 0.8
v 0.4 0.2 0.7
v 0.7 0.2 0.7
v -0.3 0.2 0.3
v -0.1 0.2 0.3
v -0.4 0.2 0
v -0.3 0.2 0
v -0.4 0.2 -0.1
v -0.3 0.2 -0.1
v -0.1 0.2 -0.1
v 0.5 0.3 1
v 0.7 0.3 1
v 0.5 0.3 0.8
v 0.7 0.3 0.8

# faces
f 3/5/1 2/5/1 1/5/1
f 4/5/1 2/5/1 3/5/1
f 7/4/1 6/4/1 5/4/1
f 8/4/1 6/4/1 7/4/1
f 11/6/1 10/6/1 9/6/1
f 12/6/1 10/6/1 11/6/1
f 15/7/1 14/7/1 13/7/1
f 16/7/1 14/7/1 15/7/1
f 19/7/1 18/7/1 17/7/1
f 20/7/1 18/7/1 19/7/1
f 21/6/2 22/6/2 23/6/2
f 23/6/2 22/6/2 24/6/2
f 25/7/2 26/7/2 27/7/2
f 27/7/2 26/7/2 28/7/2
f 25/7/2 27/7/2 29/7/2
f 29/7/2 27/7/2 30/7/2
f 31/5/2 32/5/2 33/5/2
f 33/5/2 32/5/2 34/5/2
f 37/5/3 36/5/3 35/5/3
f 38/5/3 36/5/3 37/5/3
f 41/7/3 40/7/3 39/7/3
f 43/7/3 41/7/3 39/7/3
f 43/7/3 42/7/3 41/7/3
f 44/7/3 42/7/3 43/7/3
f 47/6/3 46/6/3 45/6/3
f 48/6/3 46/6/3 47/6/3
f 51/4/3 50/4/3 49/4/3
f 52/4/3 50/4/3 51/4/3
f 53/7/4 54/7/4 55/7/4
f 55/7/4 54/7/4 56/7/4
f 57/7/4 58/7/4 59/7/4
f 59/7/4 58/7/4 60/7/4
f 60/7/4 58/7/4 61/7/4
f 62/4/4 63/4/4 64/4/4
f 64/4/4 63/4/4 65/4/4
f 64/6/4 65/6/4 66/6/4
f 66/6/4 65/6/4 67/6/4
f 68/5/4 69/5/4 70/5/4
f 70/5/4 69/5/4 71/5/4
f 74/5/5 73/5/5 72/5/5
f 75/5/5 73/5/5 74/5/5
f 76/2/5 75/2/5 74/2/5
f 77/2/5 75/2/5 76/2/5
f 78/3/5 77/3/5 76/3/5
f 79/3/5 77/3/5 78/3/5
f 80/2/5 76/2/5 74/2/5
f 80/3/5 78/3/5 76/3/5
f 81/1/5 79/1/5 78/1/5
f 81/3/5 78/3/5 80/3/5
f 82/3/5 77/3/5 79/3/5
f 82/1/5 79/1/5 81/1/5
f 83/1/5 81/1/5 80/1/5
f 83/2/5 80/2/5 74/2/5
f 84/3/5 82/3/5 81/3/5
f 84/1/5 81/1/5 83/1/5
f 85/2/5 83/2/5 74/2/5
f 85/3/5 84/3/5 83/3/5
f 86/3/5 77/3/5 82/3/5
f 86/3/5 84/3/5 85/3/5
f 86/2/5 75/2/5 77/2/5
f 86/3/5 82/3/5 84/3/5
f 87/5/5 74/5/5 72/5/5
f 87/2/5 85/2/5 74/2/5
f 87/2/5 86/2/5 85/2/5
f 88/2/5 75/2/5 86/2/5
f 88/2/5 86/2/5 87/2/5
f 88/5/5 73/5/5 75/5/5
f 89/5/5 87/5/5 72/5/5
f 89/5/5 88/5/5 87/5/5
f 90/5/5 73/5/5 88/5/5
f 90/5/5 88/5/5 89/5/5
f 91/5/6 92/5/6 93/5/6
f 93/5/6 92/5/6 94/5/6
f 93/2/6 94/2/6 95/2/6
f 95/2/6 94/2/6 96/2/6
f 93/2/6 95/2/6 97/2/6
f 97/2/6 95/2/6 98/2/6
f 96/2/6 94/2/6 100/2/6
f 98/3/6 99/3/6 101/3/6
f 97/3/6 98/3/6 101/3/6
f 101/3/6 99/3/6 102/3/6
f 97/3/6 101/3/6 103/3/6
f 103/3/6 101/3/6 104/3/6
f 93/2/6 97/2/6 105/2/6
f 97/3/6 103/3/6 105/3/6
f 103/1/6 104/1/6 106/1/6
f 105/3/6 103/3/6 106/3/6
f 104/3/6 101/3/6 107/3/6
f 106/1/6 104/1/6 107/1/6
f 107/3/6 101/3/6 108/3/6
f 105/1/6 106/1/6 109/1/6
f 93/2/6 105/2/6 109/2/6
f 106/3/6 107/3/6 110/3/6
f 109/1/6 106/1/6 110/1/6
f 110/3/6 107/3/6 111/3/6
f 102/3/6 99/3/6 113/3/6
f 111/3/6 112/3/6 114/3/6
f 112/3/6 113/3/6 114/3/6
f 110/3/6 111/3/6 114/3/6
f 93/2/6 109/2/6 114/2/6
f 109/3/6 110/3/6 114/3/6
f 99/2/6 100/2/6 115/2/6
f 114/3/6 113/3/6 115/3/6
f 113/3/6 99/3/6 115/3/6
f 91/5/6 93/5/6 116/5/6
f 93/2/6 114/2/6 116/2/6
f 114/2/6 115/2/6 116/2/6
f 115/2/6 100/2/6 117/2/6
f 116/2/6 115/2/6 117/2/6
f 94/5/6 92/5/6 117/5/6
f 100/2/6 94/2/6 117/2/6
f 91/5/6 116/5/6 118/5/6
f 116/5/6 117/5/6 118/5/6
f 117/5/6 92/5/6 119/5/6
f 118/5/6 117/5/6 119/5/6
f 120/7/6 121/7/6 122/7/6
f 120/7/6 122/7/6 124/7/6
f 122/7/6 123/7/6 124/7/6
f 124/7/6 123/7/6 125/7/6
f 126/6/6 127/6/6 129/6/6
f 128/4/6 129/4/6 130/4/6
f 129/6/6 127/6/6 131/6/6
f 130/4/6 129/4/6 131/4/6
f 131/6/6 127/6/6 132/6/6
f 133/7/6 134/7/6 135/7/6
f 135/7/6 134/7/6 136/7/6
